<?xml version="1.0" encoding="UTF-8" standalone="no"?>
<!-- Created with Inkscape (http://www.inkscape.org/) -->

<svg
   xmlns:dc="http://purl.org/dc/elements/1.1/"
   xmlns:cc="http://creativecommons.org/ns#"
   xmlns:rdf="http://www.w3.org/1999/02/22-rdf-syntax-ns#"
   xmlns:svg="http://www.w3.org/2000/svg"
   xmlns="http://www.w3.org/2000/svg"
   xmlns:sodipodi="http://sodipodi.sourceforge.net/DTD/sodipodi-0.dtd"
   xmlns:inkscape="http://www.inkscape.org/namespaces/inkscape"
   width="1080mm"
   height="1920mm"
   viewBox="0 0 3826.7717 6803.1495"
   id="svg2"
   version="1.1"
   inkscape:version="0.91 r13725"
   sodipodi:docname="no_cards.svg"
   inkscape:export-filename="D:\AndroidStudioProjects\Stacks\app\src\main\res\drawable-mdpi\no_cards.png"
   inkscape:export-xdpi="8.4666662"
   inkscape:export-ydpi="8.4666662">
  <defs
     id="defs4">
    <inkscape:perspective
       sodipodi:type="inkscape:persp3d"
       inkscape:vp_x="-848.52813 : 2811.6457 : 1"
       inkscape:vp_y="0 : 1000 : 0"
       inkscape:vp_z="3358.0609 : 3393.4936 : 1"
       inkscape:persp3d-origin="1913.3858 : 2267.7165 : 1"
       id="perspective4136" />
    <filter
       style="color-interpolation-filters:sRGB;"
       inkscape:label="Drop Shadow"
       id="filter4390">
      <feFlood
         flood-opacity="0.498039"
         flood-color="rgb(0,0,0)"
         result="flood"
         id="feFlood4392" />
      <feComposite
         in="flood"
         in2="SourceGraphic"
         operator="in"
         result="composite1"
         id="feComposite4394" />
      <feGaussianBlur
         in="composite1"
         stdDeviation="10"
         result="blur"
         id="feGaussianBlur4396" />
      <feOffset
         dx="0"
         dy="0"
         result="offset"
         id="feOffset4398" />
      <feComposite
         in="SourceGraphic"
         in2="offset"
         operator="over"
         result="composite2"
         id="feComposite4400" />
    </filter>
  </defs>
  <sodipodi:namedview
     id="base"
     pagecolor="#ffffff"
     bordercolor="#666666"
     borderopacity="1.0"
     inkscape:pageopacity="0.0"
     inkscape:pageshadow="2"
     inkscape:zoom="0.125"
     inkscape:cx="1220.9831"
     inkscape:cy="3532.4578"
     inkscape:document-units="px"
     inkscape:current-layer="layer1"
     showgrid="false"
     inkscape:snap-path-mask="false"
     inkscape:snap-perpendicular="true"
     inkscape:snap-tangential="false"
     inkscape:window-width="1920"
     inkscape:window-height="1018"
     inkscape:window-x="-8"
     inkscape:window-y="-8"
     inkscape:window-maximized="1">
    <inkscape:grid
       type="xygrid"
       id="grid4349"
       spacingx="4"
       spacingy="4.0000001"
       snapvisiblegridlinesonly="false" />
  </sodipodi:namedview>
  <metadata
     id="metadata7">
    <rdf:RDF>
      <cc:Work
         rdf:about="">
        <dc:format>image/svg+xml</dc:format>
        <dc:type
           rdf:resource="http://purl.org/dc/dcmitype/StillImage" />
        <dc:title />
      </cc:Work>
    </rdf:RDF>
  </metadata>
  <g
     inkscape:label="Layer 1"
     inkscape:groupmode="layer"
     id="layer1"
     transform="translate(0,5750.7874)">
    <rect
       style="opacity:1;fill:#f9f9f9;fill-opacity:0.97899367;fill-rule:nonzero;stroke:none;stroke-width:4;stroke-linejoin:miter;stroke-miterlimit:4;stroke-dasharray:none;stroke-opacity:1"
       id="rect4368"
       width="3872"
       height="6832"
       x="-16"
       y="-5763.6382" />
    <path
       style="opacity:1;fill:#a76032;fill-opacity:1;fill-rule:nonzero;stroke:none;stroke-width:4;stroke-linejoin:miter;stroke-miterlimit:4;stroke-dasharray:none;stroke-opacity:1"
       d="m 1828.5203,-2016.6677 1113.5111,257.0621 -1113.5111,888.9379"
       id="path4380"
       inkscape:connector-curvature="0" />
    <path
       style="opacity:1;fill:#be7441;fill-opacity:1;fill-rule:nonzero;stroke:none;stroke-width:4;stroke-linejoin:miter;stroke-miterlimit:4;stroke-dasharray:none;stroke-opacity:1"
       d="m 1837.0056,-870.6677 -950.73324,-820.6682 950.73324,-325.3318"
       id="rect4353"
       inkscape:connector-curvature="0" />
    <path
       style="opacity:1;fill:#dcac77;fill-opacity:1;fill-rule:nonzero;stroke:none;stroke-width:4;stroke-linejoin:miter;stroke-miterlimit:4;stroke-dasharray:none;stroke-opacity:1"
       d="m 2073.8761,-1348.7155 868.1565,-410.9017 -43.9344,944.0625 -832.2055,523.90792"
       id="path4374"
       inkscape:connector-curvature="0"
       sodipodi:nodetypes="cccc" />
    <path
       style="opacity:1;fill:#bf9065;fill-opacity:1;fill-rule:nonzero;stroke:none;stroke-width:4;stroke-linejoin:miter;stroke-miterlimit:4;stroke-dasharray:none;stroke-opacity:1"
       d="M 2070.1354,-295.88942 933.93131,-715.6098 l -47.86074,-975.7398 1187.80553,339.8057"
       id="rect4327"
       inkscape:connector-curvature="0"
       sodipodi:nodetypes="cccc" />
    <path
       style="opacity:1;fill:#f3bc83;fill-opacity:1;fill-rule:nonzero;stroke:none;stroke-width:4;stroke-linejoin:miter;stroke-miterlimit:4;stroke-dasharray:none;stroke-opacity:1"
       d="m 513.93159,-2279.4313 957.29031,-252.4845 366.5889,515.2779 -946.54936,329.3596 z"
       id="rect4362"
       inkscape:connector-curvature="0"
       sodipodi:nodetypes="ccccc" />
    <path
       style="opacity:1;fill:#e7b37c;fill-opacity:1;fill-rule:nonzero;stroke:none;stroke-width:4;stroke-linejoin:miter;stroke-miterlimit:4;stroke-dasharray:none;stroke-opacity:1"
       d="m 2124.0608,-2477.6379 1108,200 -300,528 -1105.0639,-267.3201 z"
       id="rect4365"
       inkscape:connector-curvature="0"
       sodipodi:nodetypes="ccccc" />
    <path
       style="opacity:1;fill:#ce9e6d;fill-opacity:1;fill-rule:nonzero;stroke:none;stroke-width:4;stroke-linejoin:miter;stroke-miterlimit:4;stroke-dasharray:none;stroke-opacity:1"
       d="m 2555.8783,-1823.034 848.8326,-361.3449 -462.9417,427.4697 -867.9178,410.4224 z"
       id="rect4359"
       inkscape:connector-curvature="0"
       sodipodi:nodetypes="ccccc" />
    <path
       style="opacity:1;fill:#be8e60;fill-opacity:1;fill-rule:nonzero;stroke:none;stroke-width:4;stroke-linejoin:miter;stroke-miterlimit:4;stroke-dasharray:none;stroke-opacity:1"
       d="m 422.06078,-1965.6379 1222.05522,310.2375 429.7813,303.8907 -1187.65889,-339.8856 z"
       id="rect4356"
       inkscape:connector-curvature="0"
       sodipodi:nodetypes="ccccc" />
    <path
       style="opacity:0.80699978;fill:#a76032;fill-opacity:1;fill-rule:nonzero;stroke:none;stroke-width:4;stroke-linejoin:miter;stroke-miterlimit:4;stroke-dasharray:none;stroke-opacity:1"
       d="m 1342.7471,-1565.378 -442.8154,-272.9432 201.4422,50.9116 440.2016,281.2864 7.3137,251.0538 -194.8284,-56.5685 z"
       id="rect4382"
       inkscape:connector-curvature="0"
       sodipodi:nodetypes="ccccccc" />
    <path
       style="opacity:0.80699978;fill:#a76032;fill-opacity:1;fill-rule:nonzero;stroke:none;stroke-width:4;stroke-linejoin:miter;stroke-miterlimit:4;stroke-dasharray:none;stroke-opacity:1"
       d="m 2476.4371,-1538.9953 466.6846,-447.9432 139.4422,-57.0884 -471.7984,441.2864 -1.6863,233.0538 -139.8284,70.4315 z"
       id="rect4382-9"
       inkscape:connector-curvature="0"
       sodipodi:nodetypes="ccccccc" />
    <path
       style="fill:#4d4d4d"
       d="m 1524.8649,-996.8873 c -2.0927,0 -2.3782,6.5615 -1.3658,32.1017 0.6999,17.6578 2.7926,125.6743 4.6543,240.0274 1.8618,114.3531 4.0156,208.6186 4.7766,209.4911 1.1755,1.3317 52.5291,21.10402 80.5704,31.01394 8.1535,2.88155 17.0884,6.14638 102.9382,37.66176 25.2283,9.26036 55.4983,20.30498 67.2733,24.55093 11.7682,4.24594 37.9139,13.82361 58.0939,21.28612 20.1799,7.46251 49.0705,18.1212 64.2089,23.6751 15.1316,5.5539 49.5326,18.27068 76.4392,28.26689 26.9066,9.99553 49.4647,18.24418 50.1238,18.32639 2.215,0.27858 3.8797,-136.19909 3.8865,-318.07223 l 0,-180.6404 -11.7207,-4.1801 c -6.4412,-2.3047 -54.3636,-18.1131 -106.4985,-35.1281 -85.5372,-27.9197 -141.0899,-46.1645 -331.4338,-108.846 -32.6209,-10.7423 -60.4991,-19.5345 -61.9463,-19.5345 z m 5.3473,9.9928 c 0.3398,-0.6726 32.0434,9.1897 70.4804,21.9234 38.437,12.7338 92.59,30.5459 120.3391,39.5731 l 50.4431,16.4158 0.2039,99.2386 c 0.1359,54.585 0.5435,107.2771 0.9784,117.0872 0.6862,15.8878 0.4077,17.8168 -2.7586,17.7162 -1.9433,-0.068 -32.4306,-10.23 -67.7489,-22.6002 -35.3116,-12.3695 -83.927,-29.369 -108.0341,-37.7814 -24.1005,-8.4124 -47.6574,-16.659 -52.3389,-18.3135 l -8.5068,-2.9991 -0.3398,-40.1173 c -0.2038,-22.0648 -1.0123,-73.6059 -1.8413,-114.5264 -0.8357,-40.9205 -1.2502,-74.9445 -0.9172,-75.6164 z m 53.0998,45.8506 c -0.5436,0 -0.8765,0 -1.0124,0.1563 -0.4756,0.4553 0.068,16.004 1.1008,34.5431 1.8617,32.4659 2.181,34.2033 8.8125,47.2707 7.7935,15.3551 26.2,35.2252 38.3895,41.4443 l 8.1535,4.1536 0.6115,26.7006 0.6116,26.6872 -20.8866,-0.6896 c -11.4965,-0.3737 -20.907,-0.1835 -20.907,0.4144 0,0.598 10.321,4.4858 22.9318,8.6523 12.6175,4.1665 36.6908,12.4783 53.5074,18.4731 16.8166,5.9943 31.0377,10.4535 31.6017,9.9126 0.5435,-0.5435 -0.068,-1.3616 -1.3522,-1.8311 -1.3113,-0.4688 -11.408,-6.6498 -22.4289,-13.7352 l -20.0373,-12.886 -0.5436,-26.2496 -0.5435,-26.236 13.8134,0 c 16.4022,0 27.3483,-5.2155 35.2436,-16.7344 4.9057,-7.15 5.0552,-8.4634 5.0552,-42.1877 l 0,-34.8087 -49.4308,-16.6148 c -27.1919,-9.1367 -49.7635,-16.0162 -50.1644,-15.2879 -0.4078,0.7277 0.8357,9.3861 2.7382,19.2423 3.1119,16.1637 3.1459,18.0934 0.2718,19.6942 -2.8266,1.5811 -2.6704,3.8933 1.522,21.299 2.5887,10.7376 5.1299,21.5919 5.6395,24.1263 0.5435,2.5344 -4.1584,-8.5992 -10.3754,-24.7365 -12.1895,-31.637 -12.6379,-33.3125 -8.6902,-32.4074 1.4336,0.326 2.8401,-0.3126 3.139,-1.4331 0.9648,-3.5909 -6.0676,-29.3288 -8.5,-31.1464 -2.6839,-1.9976 -14.6152,-5.6089 -18.2775,-5.7591 z m 197.6616,35.8837 c 0.8019,0 40.4959,12.7887 88.2144,28.4258 47.7185,15.6371 103.2779,33.8188 123.4578,40.3959 l 36.6773,11.9572 0,112.9996 c 0,62.1495 -0.3398,115.979 -0.7407,119.6223 -0.7881,7.0169 -2.3101,7.6372 -10.484,4.2603 -2.8062,-1.1585 -23.4414,-8.513 -45.8635,-16.3363 -108.2788,-37.7821 -130.6126,-45.5231 -159.0005,-55.1402 -16.8166,-5.6973 -31.2008,-11.3368 -31.9821,-12.5272 -1.8753,-2.8775 -2.1743,-233.6574 -0.3398,-233.6574 z m 78.7631,48.0799 c -0.8969,0.1019 -9.6212,10.3658 -19.385,22.7986 l -17.7611,22.6002 11.6528,3.8749 11.6391,3.8886 0.5435,51.8618 0.5436,51.8618 11.6799,4.1407 c 6.4277,2.2768 12.373,3.794 13.2155,3.3837 0.8425,-0.4077 1.5288,-23.5304 1.5288,-51.3842 l 0,-50.6408 10.4433,3.9681 c 5.7415,2.1824 10.9597,3.4536 11.5848,2.8265 1.4881,-1.4901 -33.5517,-69.4198 -35.6852,-69.1799 z m 82.5951,27.3374 c -2.1267,0.068 -7.9633,6.3795 -19.8606,21.4458 -10.3346,13.0816 -18.4949,24.046 -18.128,24.3648 0.3398,0.3193 5.9113,2.0831 12.339,3.9279 l 11.6799,3.3579 0.5436,52.4454 0.5436,52.4326 10.1919,3.4768 c 5.6055,1.9134 11.3333,3.5224 12.7399,3.5699 1.9704,0.068 2.5479,-11.4101 2.5479,-50.8664 0,-28.0277 0.8085,-50.9595 1.7869,-50.9595 0.9853,0 5.6804,1.3705 10.4434,3.0521 12.5496,4.4281 13.1544,3.9871 7.5963,-5.6001 -2.7654,-4.765 -10.6335,-19.6703 -17.4961,-33.1236 -6.8557,-13.4534 -13.263,-25.6796 -14.2346,-27.1648 -0.1359,-0.2447 -0.4077,-0.3669 -0.6931,-0.3601 z m -406.8266,83.579 c 0.5436,0 38.0158,12.9308 83.3018,28.7309 45.2928,15.8002 97.0268,33.7685 114.9646,39.9449 17.9377,6.1769 34.2176,12.0929 36.1744,13.138 3.3362,1.7754 3.574,9.4105 3.574,115.9729 0,62.74272 -0.6863,114.02356 -1.5288,113.95561 -1.3385,-0.10872 -18.7735,-6.43585 -97.3394,-35.38016 -24.6032,-9.06263 -68.8701,-25.25284 -104.9698,-38.37865 l -29.5564,-10.749 -1.2706,-15.58 c -1.6036,-19.6534 -4.634,-211.6545 -3.3498,-211.6545 z m 292.888,44.8416 c -1.0328,0 -1.8753,6.3095 -1.8753,14.0139 l 0,14.001 60.635,20.9803 c 33.3547,11.542 66.1454,23.0262 72.8721,25.5069 6.7266,2.48 13.1067,4.3201 14.1735,4.1006 1.06,-0.2175 1.9705,-6.6866 2.0316,-14.3727 l 0.1359,-13.9737 -21.4098,-7.4319 c -11.7682,-4.0898 -33.776,-11.6759 -48.9143,-16.8534 -15.1316,-5.1775 -38.3759,-13.136 -51.639,-17.6897 -13.2563,-4.5538 -24.9498,-8.2813 -25.9825,-8.2813 z m -195.2496,24.697 c -0.9309,0.068 -2.3441,0.7244 -4.4912,1.8713 -4.4165,2.3658 -5.1639,8.0754 -1.5356,11.7043 3.5332,3.536 7.7866,-0.8078 7.7866,-7.949 0,-4.0584 -0.2038,-5.7088 -1.7598,-5.6266 z m 39.001,6.1573 c -0.4757,-0.1155 -1.0056,-0.088 -1.7122,0.068 -4.6951,0.9234 -7.9497,6.4637 -6.3055,10.7498 2.2967,5.986 8.4186,2.8795 9.1456,-4.6448 0.4077,-4.1257 0.2038,-5.8101 -1.1279,-6.158 z m 39.4291,0.9424 c -0.6931,-0.3465 -1.9705,0.1291 -4.301,1.1945 -5.4629,2.4896 -6.6248,7.47 -2.6567,11.4394 1.3453,1.3453 3.0847,2.4548 3.8593,2.4548 1.984,0 3.8933,-5.5497 3.8933,-11.3333 0,-2.2354 -0.1359,-3.4075 -0.7949,-3.7554 z m 70.956,8.9709 c 0.4756,0 13.5483,4.5157 29.0469,10.0329 28.2451,10.0499 81.1274,28.4959 168.8322,58.895 l 46.8827,16.2567 0.5435,117.41949 c 0.2719,64.58199 -0.1358,117.34001 -1.0191,117.23333 -0.8494,-0.10871 -5.6803,-1.79717 -10.7219,-3.75605 -5.0484,-1.95821 -40.8152,-15.14924 -79.4968,-29.30171 -38.6749,-14.15179 -85.4625,-31.34145 -103.9574,-38.20603 -18.5017,-6.86458 -36.3851,-13.45331 -39.7484,-14.63761 -11.8633,-4.17799 -11.2111,2.83879 -11.2111,-120.03342 0,-62.6448 0.4077,-113.9026 0.863,-113.9026 z m -130.8232,8.6794 c -1.0464,0.1292 -1.9501,0.564 -2.4665,1.4066 -0.992,1.5994 -4.7902,1.9249 -11.6935,1.0082 -23.1424,-3.0698 -50.2121,12.8928 -56.5718,33.3629 -1.325,4.2649 -1.0804,4.4858 2.4936,2.2558 5.1367,-3.2071 12.8418,-1.1666 20.7439,5.4805 4.5388,3.8213 7.6847,4.9628 11.2247,4.0747 6.3257,-1.5872 13.2902,1.1021 19.4665,7.5244 3.805,3.9531 5.9181,4.7161 9.3833,3.3973 2.4597,-0.935 5.0212,-1.1538 5.694,-0.4757 0.6794,0.6795 1.2365,21.2842 1.2365,45.797 0,37.83773 -0.4756,44.75606 -3.0779,45.75754 -5.1775,1.98676 -12.937,-4.75007 -14.3909,-12.50134 -0.9717,-5.1768 -2.3986,-7.1527 -5.1844,-7.1527 -7.8205,0 -2.4053,18.56623 7.6167,26.13 3.8934,2.93801 8.2419,4.26091 12.9506,3.92795 11.612,-0.82015 12.4137,-4.50687 11.7954,-54.01165 -0.2718,-23.8245 -0.1359,-43.3169 0.3397,-43.3155 0.4757,0 2.5956,1.5763 4.7291,3.5032 2.48,2.2484 6.4208,3.2852 10.9732,2.8932 7.1344,-0.6115 16.4906,3.7771 19.7587,9.276 1.1483,1.9351 3.7575,2.4134 8.4118,1.5397 8.1263,-1.5241 17.1903,2.6505 23.3734,10.7626 l 4.3145,5.653 -4.1174,-10.802 c -6.2103,-16.3158 -10.8918,-24.6827 -21.206,-37.9546 -10.9869,-14.1342 -28.6053,-29.5701 -40.0134,-35.0343 -4.6271,-2.2171 -8.0652,-5.3141 -8.0788,-7.2859 0,-3.1214 -4.5456,-5.5926 -7.6847,-5.2148 z m 45.2384,5.5865 c -0.6115,0 -2.9285,0.95 -5.096,2.1104 -4.4436,2.3782 -5.1707,8.085 -1.5016,11.7575 3.2886,3.2879 5.028,3.0752 6.5025,-0.7828 1.5627,-4.0652 1.6306,-13.0851 0.068,-13.0851 z m 156.0515,61.3505 c -0.8901,0.1427 -1.8549,0.6456 -3.1187,1.3535 -2.5751,1.4418 -2.1403,3.1364 2.7994,10.7892 3.2206,4.9886 14.6559,23.2198 25.4118,40.5155 18.5289,29.78751 19.3714,31.61323 15.8993,34.64968 -2.0111,1.76321 -9.9609,8.70731 -17.6455,15.43399 -31.0853,27.18788 -28.7004,24.21864 -24.5693,30.52267 l 3.6351,5.56071 5.4289,-4.89688 c 2.9828,-2.69745 13.2155,-11.74446 22.7483,-20.0923 9.5261,-8.34784 18.0193,-16.09098 18.855,-17.21209 1.0056,-1.33787 2.0656,-1.27061 3.0644,0.19704 0.8426,1.23191 11.9857,18.89239 24.7663,39.24154 12.7806,20.34914 24.413,36.99863 25.867,36.99863 8.0177,0 6.0268,-4.03804 -29.3187,-59.75782 -12.9504,-20.41914 -14.8394,-24.51696 -12.4341,-26.80673 1.5628,-1.48598 12.4749,-11.14314 24.2432,-21.45864 11.775,-10.3163 21.6611,-19.4367 21.9805,-20.2779 0.3397,-0.8412 -1.0668,-3.5406 -3.0644,-5.9982 l -3.6283,-4.4722 -14.2754,12.5673 c -7.8478,6.9141 -17.4826,15.4353 -21.4166,18.9372 -14.6831,13.05987 -12.1284,14.25913 -29.8215,-14.0003 -8.8126,-14.073 -19.7791,-31.6187 -24.3654,-38.9895 -6.4889,-10.4276 -8.3778,-13.2413 -11.0413,-12.8064 z m -9.0232,18.1545 c -1.6375,0 -1.4336,90.76024 0.2038,92.40385 0.7474,0.74741 3.0576,1.35349 5.1504,1.35349 3.5943,0 3.7846,-2.37743 3.5943,-44.84164 -0.2038,-41.5674 -0.4756,-44.9993 -3.9953,-46.8855 -2.0927,-1.119 -4.3281,-2.0302 -4.96,-2.0302 z m -36.3511,0.8622 c -0.8493,0.3602 -1.488,3.7976 -1.488,8.3479 0,9.4445 0,9.45 -6.1152,8.108 l -6.1151,-1.3399 0,13.244 c 0,13.064 0.068,13.2733 6.1151,14.5976 5.8026,1.2739 6.1152,1.8698 6.1152,11.54537 0,5.61024 0.8289,9.88882 1.8482,9.51511 1.0191,-0.3737 7.5147,-5.08777 14.4384,-10.48398 9.2611,-7.2187 12.2439,-10.7104 11.2791,-13.2176 -1.9569,-5.1062 -23.5569,-38.9494 -25.704,-40.2764 -0.1359,-0.082 -0.2718,-0.095 -0.4077,-0.068 z m 71.8868,9.1571 c 0,0.7291 3.2547,6.3326 7.2363,12.4613 3.9817,6.1281 9.2067,14.5874 11.5984,18.7912 2.3917,4.2038 5.3201,7.6378 6.516,7.631 1.1958,-0.01 7.5692,-4.8955 14.16,-10.8558 l 11.9788,-10.8421 -5.8637,-2.3754 c -14.6832,-5.9609 -45.6258,-16.0047 -45.6258,-14.8102 z m -13.4668,17.0266 c -0.3398,0.3534 -1.2366,13.2209 -1.9501,28.58489 -0.7202,15.36394 -0.6795,27.93464 0.068,27.93464 0.7542,0 6.8762,-4.22891 13.5892,-9.39556 8.3642,-6.43718 11.8363,-10.37674 11.0141,-12.51432 -1.7666,-4.60335 -21.9737,-35.36855 -22.7347,-34.60965 z m 90.9321,13.4432 0,46.06253 c 0,45.91046 0,46.06878 4.5863,47.76131 l 4.5796,1.69864 0.5435,-45.89004 c 0.2719,-25.23921 0.2719,-46.09864 0,-46.35484 -0.2717,-0.2581 -2.5954,-1.0959 -5.1231,-1.8712 l -4.5863,-1.4064 z m -12.2371,12.2221 -5.5988,4.14061 c -3.0847,2.27414 -9.193,7.21724 -13.5756,10.98824 l -7.9768,6.86047 8.0788,11.05485 c 4.4437,6.08249 10.1715,14.50711 12.7262,18.71161 2.5548,4.20382 5.0281,7.64392 5.4969,7.64392 0.4756,0 0.8493,-13.36769 0.8493,-29.69989 l 0,-29.69981 z m 56.8776,16.73438 -14.1736,11.57192 c -7.7933,6.36648 -14.1599,12.32876 -14.1599,13.244 0,0.91591 6.1967,10.86999 13.7591,22.12253 11.0209,16.37838 13.8678,19.52156 14.323,15.73901 1.4948,-12.40422 2.4189,-14.08113 6.4888,-11.90414 7.1819,3.84302 8.2283,2.43655 8.2283,-10.88155 0,-12.86897 -0.068,-12.95798 -6.6247,-14.83669 -6.3666,-1.81755 -6.6451,-2.35433 -7.2295,-13.48316 l -0.6115,-11.57192 z m -96.7551,22.99836 c -4.6883,1.09936 -25.7448,20.06377 -23.8898,21.92278 0.9241,0.92066 11.7478,5.32085 24.0597,9.76723 23.7675,8.58226 26.1795,9.2393 24.841,6.82109 -5.6259,-10.17355 -22.9929,-37.68148 -24.2974,-38.4846 -0.1359,-0.0951 -0.4078,-0.10192 -0.7135,0 z"
       id="path5179"
       inkscape:connector-curvature="0" />
    <path
       style="fill:#4d4d4d"
       d="m 2898.0244,-1205.7678 c 0.9718,0 1.1044,5.1316 0.6343,25.1062 -0.3251,13.8098 -1.2969,98.2877 -2.1614,187.7215 -0.8646,89.4337 -1.8648,163.1572 -2.2182,163.8395 -0.5458,1.0415 -24.3931,16.5051 -37.4147,24.2555 -3.7863,2.2536 -7.9354,4.8071 -47.8018,29.4546 -11.7154,7.2425 -25.7719,15.8803 -31.24,19.201 -5.4648,3.3206 -17.6061,10.811 -26.9772,16.6475 -9.371,5.8363 -22.787,14.1723 -29.8169,18.5159 -7.0267,4.3436 -23.0016,14.2891 -35.4963,22.1071 -12.4948,7.8173 -22.9701,14.2684 -23.2762,14.3327 -1.0286,0.2179 -1.8017,-106.5191 -1.8048,-248.759 l 0,-141.276 5.4428,-3.2691 c 2.9911,-1.8024 25.2451,-14.166 49.4551,-27.4731 39.7212,-21.8355 65.5184,-36.1045 153.9091,-85.1267 15.1483,-8.4014 28.0942,-15.2776 28.7662,-15.2776 z m -2.4831,7.8152 c -0.1578,-0.526 -14.8802,7.1871 -32.7293,17.146 -17.8491,9.9588 -42.9964,23.8895 -55.8823,30.9494 l -23.4244,12.8386 -0.095,77.6129 c -0.063,42.6899 -0.2524,83.8996 -0.4544,91.5719 -0.3187,12.4255 -0.1893,13.9342 1.281,13.8555 0.9024,-0.052 15.06,-8.0006 31.4609,-17.6753 16.3977,-9.6739 38.9734,-22.9689 50.1681,-29.5481 11.1916,-6.5792 22.1308,-13.0287 24.3048,-14.3227 l 3.9503,-2.3455 0.1578,-31.3751 c 0.095,-17.2566 0.4702,-57.566 0.855,-89.5692 0.3882,-32.0034 0.5806,-58.6129 0.426,-59.1384 z m -24.6582,35.859 c 0.2524,0 0.407,0 0.4701,0.1222 0.2209,0.3562 -0.032,12.5165 -0.5111,27.0157 -0.8646,25.391 -1.0129,26.7497 -4.0923,36.9696 -3.6192,12.009 -12.1667,27.549 -17.8271,32.4128 l -3.7863,3.2485 -0.2839,20.8822 -0.284,20.8716 9.6991,-0.5393 c 5.3387,-0.2923 9.7087,-0.1436 9.7087,0.3241 0,0.4676 -4.7928,3.5082 -10.649,6.7667 -5.8592,3.2587 -17.0382,9.7591 -24.8473,14.4475 -7.8092,4.6881 -14.4132,8.1757 -14.675,7.7525 -0.2525,-0.425 0.032,-1.0648 0.6278,-1.432 0.609,-0.3667 5.2977,-5.2007 10.4155,-10.7421 l 9.3048,-10.078 0.2523,-20.5294 0.2525,-20.5186 -6.4146,0 c -7.6168,0 -12.6998,-4.079 -16.3662,-13.0878 -2.2781,-5.5918 -2.3475,-6.6191 -2.3475,-32.9943 l 0,-27.2232 22.9544,-12.9942 c 12.6272,-7.1458 23.1088,-12.5261 23.2949,-11.9564 0.1894,0.5692 -0.388,7.3407 -1.2715,15.0491 -1.445,12.6413 -1.4608,14.1505 -0.1261,15.4025 1.3125,1.2365 1.2399,3.0448 -0.7069,16.6576 -1.2021,8.3977 -2.3822,16.8866 -2.6188,18.8687 -0.2524,1.9821 1.931,-6.7252 4.8181,-19.346 5.6604,-24.7428 5.8686,-26.0532 4.0354,-25.3454 -0.6657,0.255 -1.3188,-0.2444 -1.4576,-1.1207 -0.4481,-2.8084 2.8176,-22.9376 3.9472,-24.359 1.2464,-1.5624 6.7868,-4.3867 8.4875,-4.5041 z m -91.7888,28.064 c -0.3724,0 -18.8053,10.0019 -40.9645,22.2314 -22.1591,12.2295 -47.9595,26.4492 -57.3305,31.5929 l -17.032,9.3516 0,88.3752 c 0,48.6061 0.1578,90.7053 0.3441,93.5546 0.3659,5.4878 1.0727,5.9728 4.8685,3.3319 1.303,-0.906 10.8855,-6.6579 21.2977,-12.7764 50.2818,-29.5487 60.653,-35.6028 73.8356,-43.1243 7.8092,-4.4557 14.4888,-8.8663 14.8516,-9.7972 0.8709,-2.2505 1.0098,-182.7397 0.1579,-182.7397 z m -36.5755,37.6025 c 0.4164,0.08 4.4678,8.1069 9.0019,17.8306 l 8.2478,17.675 -5.4113,3.0306 -5.4049,3.0411 -0.2524,40.5605 -0.2525,40.5602 -5.4237,3.2383 c -2.9849,1.7806 -5.7457,2.9672 -6.137,2.6463 -0.3912,-0.3189 -0.71,-18.4027 -0.71,-40.1866 l 0,-39.6054 -4.8495,3.1034 c -2.6662,1.7068 -5.0894,2.701 -5.3797,2.2105 -0.6911,-1.1654 15.5805,-54.2921 16.5713,-54.1045 z m -38.3551,21.3803 c 0.9877,0.052 3.6981,4.9892 9.2228,16.7723 4.7991,10.2309 8.5886,18.8059 8.4182,19.0553 -0.1578,0.2497 -2.7451,1.6292 -5.7299,3.072 l -5.4239,2.6261 -0.2524,41.0167 -0.2524,41.0066 -4.7329,2.7192 c -2.603,1.4964 -5.2628,2.7548 -5.9161,2.792 -0.915,0.052 -1.1831,-8.9237 -1.1831,-39.7817 0,-21.9202 -0.3754,-39.8547 -0.8298,-39.8547 -0.4576,0 -2.6379,1.0719 -4.8497,2.387 -5.8277,3.4631 -6.1084,3.1183 -3.5275,-4.3798 1.2842,-3.7266 4.9379,-15.3838 8.1249,-25.9053 3.1834,-10.5217 6.1588,-20.0836 6.6101,-21.2452 0.064,-0.1914 0.1893,-0.2869 0.3217,-0.2816 z m 188.9196,65.3656 c -0.2524,0 -17.6535,10.113 -38.6831,22.47 -21.0329,12.357 -45.0567,26.4098 -53.3866,31.2402 -8.3298,4.8309 -15.8897,9.4577 -16.7983,10.2751 -1.5493,1.3885 -1.6598,7.3598 -1.6598,90.7004 0,49.0701 0.3187,89.176 0.7099,89.1229 0.6216,-0.085 8.718,-5.0334 45.2019,-27.6702 11.4251,-7.0878 31.9814,-19.7499 48.7453,-30.0154 l 13.7251,-8.4066 0.5901,-12.1849 c 0.7446,-15.3705 2.1519,-165.5315 1.5555,-165.5315 z m -136.0094,35.0699 c 0.4795,0 0.8707,4.9346 0.8707,10.9601 l 0,10.9499 -28.1571,16.4084 c -15.4891,9.0268 -30.7162,18.0083 -33.84,19.9485 -3.1237,1.9396 -6.0863,3.3787 -6.5818,3.207 -0.4921,-0.1701 -0.915,-5.2295 -0.9434,-11.2407 l -0.064,-10.9285 9.9421,-5.8124 c 5.4648,-3.1985 15.6846,-9.1315 22.7144,-13.1809 7.0267,-4.0491 17.8208,-10.2733 23.9799,-13.8347 6.1558,-3.5614 11.586,-6.4767 12.0655,-6.4767 z m 90.6687,19.3151 c 0.4323,0.052 1.0886,0.5666 2.0856,1.4636 2.0509,1.8502 2.398,6.3156 0.7131,9.1538 -1.6407,2.7654 -3.6158,-0.6318 -3.6158,-6.2168 0,-3.1741 0.095,-4.4649 0.8171,-4.4006 z m -18.111,4.8155 c 0.2209,-0.091 0.467,-0.068 0.7951,0.053 2.1803,0.7222 3.6916,5.0552 2.928,8.4072 -1.0665,4.6816 -3.9093,2.252 -4.2469,-3.6326 -0.1894,-3.2267 -0.095,-4.5439 0.5238,-4.8161 z m -18.3099,0.7371 c 0.3219,-0.2709 0.9151,0.1008 1.9974,0.9343 2.5368,1.9471 3.0763,5.8421 1.2336,8.9465 -0.6247,1.0522 -1.4324,1.9198 -1.7922,1.9198 -0.9212,0 -1.8079,-4.3402 -1.8079,-8.8636 0,-1.7483 0.064,-2.6649 0.3691,-2.937 z m -32.9501,7.016 c -0.2208,0 -6.2914,3.5317 -13.4886,7.8466 -13.1163,7.8598 -37.6734,22.2861 -78.4012,46.0607 l -21.771,12.7142 -0.2525,91.8318 c -0.1262,50.5086 0.063,91.7696 0.4733,91.6863 0.3945,-0.085 2.6378,-1.4056 4.9789,-2.9375 2.3444,-1.5315 18.9536,-11.848 36.9163,-22.9164 17.9596,-11.0678 39.6865,-24.5117 48.2751,-29.8805 8.5917,-5.3685 16.8963,-10.5215 18.458,-11.4476 5.5091,-3.2677 5.2061,2.2201 5.2061,-93.8763 0,-48.9934 -0.1893,-89.0813 -0.4006,-89.0813 z m 60.7509,6.7881 c 0.4859,0.1008 0.9055,0.441 1.1454,1.0999 0.4606,1.2509 2.2244,1.5055 5.4302,0.7886 10.7467,-2.4009 23.3171,10.0832 26.2704,26.0926 0.6152,3.3355 0.5017,3.5083 -1.1579,1.7642 -2.3854,-2.5083 -5.9636,-0.9124 -9.6329,4.2861 -2.1078,2.9887 -3.5686,3.8815 -5.2125,3.1869 -2.9376,-1.2414 -6.1717,0.8619 -9.0397,5.8847 -1.767,3.0916 -2.7483,3.6883 -4.3574,2.657 -1.1422,-0.7313 -2.3317,-0.9024 -2.6442,-0.3721 -0.3155,0.5314 -0.5742,16.646 -0.5742,35.8171 0,29.5922 0.2208,35.0029 1.4293,35.7861 2.4043,1.5539 6.0076,-3.7149 6.6827,-9.777 0.4513,-4.0488 1.1139,-5.5939 2.4076,-5.5939 3.6316,0 1.1169,14.5203 -3.537,20.4358 -1.808,2.2977 -3.8273,3.3323 -6.0139,3.0719 -5.3924,-0.6414 -5.7647,-3.5247 -5.4776,-42.2416 0.1263,-18.6327 0.064,-33.8775 -0.1576,-33.8763 -0.221,0 -1.2055,1.2328 -2.1962,2.7398 -1.1515,1.7585 -2.9816,2.5692 -5.0956,2.2627 -3.3131,-0.4783 -7.6578,2.954 -9.1754,7.2546 -0.5333,1.5134 -1.7449,1.8875 -3.9062,1.2042 -3.7737,-1.192 -7.9828,2.0729 -10.854,8.4172 l -2.0035,4.4211 1.9119,-8.448 c 2.8839,-12.7603 5.058,-19.304 9.8476,-29.6838 5.102,-11.054 13.2835,-23.1262 18.5812,-27.3997 2.1486,-1.7339 3.7452,-4.1561 3.7515,-5.6981 0,-2.4412 2.1109,-4.3739 3.5685,-4.0785 z m -21.0075,4.369 c 0.2839,0 1.3599,0.743 2.3665,1.6505 2.0634,1.86 2.4011,6.3231 0.6972,9.1954 -1.5272,2.5714 -2.3348,2.4051 -3.0195,-0.6122 -0.7257,-3.1793 -0.7573,-10.2337 -0.032,-10.2337 z m -72.4662,47.9811 c 0.4133,0.1121 0.8614,0.5051 1.4482,1.0587 1.1959,1.1276 0.994,2.4529 -1.2999,8.4381 -1.4956,3.9015 -6.8058,18.1597 -11.8006,31.6864 -8.6043,23.2964 -8.9955,24.7242 -7.3832,27.0989 0.9338,1.3791 4.6255,6.81 8.1941,12.0708 14.4351,21.2633 13.3277,18.9409 11.4093,23.8712 l -1.688,4.349 -2.521,-3.8297 c -1.3852,-2.1098 -6.137,-9.1852 -10.5638,-15.7138 -4.4236,-6.5289 -8.3676,-12.5847 -8.7558,-13.4615 -0.4668,-1.0462 -0.9592,-0.9937 -1.4229,0.1542 -0.3914,0.9634 -5.5659,14.7754 -11.5008,30.6902 -5.935,15.9148 -11.3368,28.9359 -12.012,28.9359 -3.7232,0 -2.7988,-3.1581 13.6149,-46.7355 6.0138,-15.9695 6.891,-19.1744 5.774,-20.9652 -0.7257,-1.1621 -5.793,-8.7148 -11.2579,-16.7824 -5.4681,-8.0683 -10.0589,-15.2012 -10.2072,-15.8591 -0.1578,-0.6579 0.4954,-2.769 1.4231,-4.691 l 1.6849,-3.4976 6.629,9.8286 c 3.6443,5.4074 8.1185,12.0717 9.9454,14.8105 6.8184,10.214 5.632,11.1518 13.8482,-10.9494 4.0924,-11.0063 9.185,-24.7286 11.3146,-30.493 3.0134,-8.1553 3.8906,-10.3558 5.1274,-10.0156 z m 4.1901,14.1985 c 0.7604,0 0.6658,70.982 -0.095,72.2676 -0.3469,0.5845 -1.4198,1.0585 -2.3916,1.0585 -1.6691,0 -1.7575,-1.8594 -1.6691,-35.0699 0.095,-32.5092 0.2209,-35.1933 1.8553,-36.6684 0.9718,-0.8751 2.0098,-1.5878 2.3033,-1.5878 z m 16.8805,0.6744 c 0.3944,0.2816 0.691,2.97 0.691,6.5286 0,7.3864 0,7.3908 2.8398,6.3412 l 2.8397,-1.0479 0,10.3579 c 0,10.2172 -0.031,10.3809 -2.8397,11.4165 -2.6946,0.9964 -2.8398,1.4623 -2.8398,9.0296 0,4.3875 -0.3849,7.7338 -0.8582,7.4415 -0.4733,-0.2923 -3.4897,-3.9791 -6.7048,-8.1994 -4.3006,-5.6457 -5.6858,-8.3764 -5.2378,-10.3372 0.9088,-3.9935 10.9392,-30.4617 11.9363,-31.4996 0.064,-0.064 0.1262,-0.074 0.1893,-0.052 z m -33.3823,7.1615 c 0,0.5702 -1.5114,4.9526 -3.3603,9.7458 -1.8491,4.7927 -4.2755,11.4085 -5.3861,14.6962 -1.1106,3.2878 -2.4705,5.9736 -3.0258,5.9681 -0.5553,-0.011 -3.515,-3.8286 -6.5756,-8.4901 l -5.5626,-8.4794 2.723,-1.8578 c 6.8184,-4.6619 21.1874,-12.5169 21.1874,-11.5828 z m 6.2536,13.3162 c 0.1578,0.2765 0.5743,10.3398 0.9056,22.3559 0.3344,12.0158 0.3155,21.847 -0.031,21.847 -0.3502,0 -3.1931,-3.3072 -6.3105,-7.348 -3.8841,-5.0344 -5.4965,-8.1154 -5.1147,-9.7873 0.8204,-3.6001 10.2041,-27.6612 10.5574,-27.0676 z m -42.2265,10.5137 0,36.0248 c 0,35.9058 0,36.0296 -2.1298,37.3532 l -2.1265,1.3286 -0.2524,-35.8899 c -0.1262,-19.7391 -0.1262,-36.0529 0,-36.2532 0.1261,-0.2019 1.2052,-0.8572 2.3789,-1.4634 l 2.1298,-1.1001 z m 5.6827,9.5588 2.6,3.2382 c 1.4323,1.7786 4.2688,5.6446 6.304,8.5938 l 3.7043,5.3654 -3.7517,8.6459 c -2.0635,4.757 -4.7233,11.3458 -5.9097,14.634 -1.1864,3.2877 -2.3349,5.9781 -2.5525,5.9781 -0.221,0 -0.3944,-10.4546 -0.3944,-23.2277 l 0,-23.2277 z m -26.4125,13.0876 6.5818,9.0503 c 3.619,4.9791 6.5755,9.6421 6.5755,10.3579 0,0.7162 -2.8776,8.5012 -6.3893,17.3016 -5.1179,12.8092 -6.4399,15.2675 -6.6512,12.3092 -0.6943,-9.7012 -1.1234,-11.0126 -3.0133,-9.31 -3.3351,3.0056 -3.821,1.9057 -3.821,-8.5103 0,-10.0646 0.031,-10.1341 3.0763,-11.6036 2.9565,-1.4213 3.0859,-1.8413 3.3572,-10.5448 l 0.284,-9.0503 z m 44.9305,17.9866 c 2.1771,0.8598 11.9552,15.6916 11.0937,17.1455 -0.429,0.7201 -5.4553,4.1614 -11.1726,7.6388 -11.0371,6.7121 -12.1571,7.226 -11.5354,5.3347 2.6124,-7.9567 10.6771,-29.4701 11.283,-30.0982 0.064,-0.074 0.1893,-0.08 0.3313,0 z"
       id="path5179-0"
       inkscape:connector-curvature="0" />
    <rect
       style="opacity:0.80699978;fill:#e6e6e6;fill-opacity:1;fill-rule:nonzero;stroke:none;stroke-width:4;stroke-linejoin:miter;stroke-miterlimit:4;stroke-dasharray:none;stroke-opacity:1"
       id="rect4402"
       width="5232"
       height="784"
       x="-584"
       y="-4107.6377"
       rx="0"
       ry="0" />
    <text
       xml:space="preserve"
       style="font-style:normal;font-weight:normal;font-size:28.65577698px;line-height:125%;font-family:sans-serif;letter-spacing:0px;word-spacing:0px;fill:#808080;fill-opacity:1;stroke:none;stroke-width:1px;stroke-linecap:butt;stroke-linejoin:miter;stroke-opacity:1"
       x="897.72119"
       y="-3548.395"
       id="text4322"
       sodipodi:linespacing="125%"><tspan
         sodipodi:role="line"
         id="tspan4324"
         x="897.72119"
         y="-3548.395"
         style="font-style:normal;font-variant:normal;font-weight:normal;font-stretch:normal;font-size:515.80395508px;font-family:'Droid Sans';-inkscape-font-specification:'Droid Sans';fill:#808080">No cards</tspan></text>
  </g>
</svg>
